<svg width="184" height="38" xmlns="http://www.w3.org/2000/svg"><g fill="#FFFFFE" fill-rule="evenodd"><path d="M151.979 26.979c0 .517-.17.959-.514 1.326-.344.367-.787.551-1.336.551s-.994-.184-1.336-.55a1.871 1.871 0 01-.514-1.327c0-.462.17-.884.514-1.265.342-.38.787-.571 1.336-.571s.992.19 1.336.571c.343.381.514.803.514 1.265M157.284 28.913h2.261V8.965h-2.261zM181.029 18.925c0-1.138-.178-2.194-.532-3.17a7.236 7.236 0 00-1.557-2.54 7.526 7.526 0 00-2.456-1.706c-.954-.42-2.032-.63-3.234-.63-1.201 0-2.271.21-3.214.63-.94.42-1.754.99-2.435 1.707a7.236 7.236 0 00-1.556 2.54c-.354.975-.532 2.031-.532 3.169 0 1.137.178 2.194.532 3.169a7.23 7.23 0 001.556 2.54 7.31 7.31 0 002.435 1.686c.943.406 2.013.61 3.214.61 1.202 0 2.28-.204 3.234-.61a7.263 7.263 0 002.456-1.686 7.23 7.23 0 001.557-2.54c.354-.975.532-2.032.532-3.17zm2.292 0c0 1.436-.246 2.763-.737 3.982a9.455 9.455 0 01-2.067 3.17c-.888.893-1.952 1.59-3.194 2.092-1.242.5-2.599.751-4.073.751-1.473 0-2.825-.25-4.053-.751a9.42 9.42 0 01-3.172-2.093 9.455 9.455 0 01-2.067-3.17c-.491-1.218-.737-2.545-.737-3.981s.246-2.763.737-3.982a9.237 9.237 0 012.067-3.15c.886-.88 1.944-1.57 3.172-2.072 1.228-.5 2.58-.751 4.053-.751 1.474 0 2.831.25 4.073.751 1.242.502 2.306 1.193 3.194 2.073a9.237 9.237 0 012.067 3.149c.49 1.219.737 2.546.737 3.982zM99.47 28.916h4.362V.149H99.47zM86.68 24.949a6.014 6.014 0 01-6.011-6.011 6.014 6.014 0 016.01-6.01c3.299 0 6.011 2.711 6.011 6.01a6.014 6.014 0 01-6.01 6.01zm0-15.943c-5.498 0-9.97 4.47-9.97 9.968s4.472 9.97 9.97 9.97c5.497 0 9.968-4.472 9.968-9.97 0-5.497-4.471-9.968-9.969-9.968zM41.009 28.916h-4.245c-7.924 0-14.385-6.46-14.385-14.385S28.84.146 36.764.146h4.245v28.77M.085.146H4.33c7.925 0 14.385 6.46 14.385 14.385S12.254 28.916 4.33 28.916H.085V.146M117.567 24.95a6.01 6.01 0 01-5.7-4.118 5.983 5.983 0 01-.31-1.893 6.017 6.017 0 016.01-6.01c3.299 0 6.01 2.711 6.01 6.01a6.014 6.014 0 01-6.01 6.01zm0-15.943a9.911 9.911 0 00-5.7 1.797V.149h-4.37v28.767h4.37v-1.769a9.91 9.91 0 005.7 1.798c5.498 0 9.969-4.472 9.969-9.97 0-5.497-4.471-9.968-9.969-9.968zM60.112 24.554h-6.03V4.506h6.03c5.522 0 10.024 4.502 10.024 10.024 0 5.522-4.502 10.024-10.024 10.024zm0-24.41H49.72v28.772h10.39c7.933 0 14.386-6.454 14.386-14.386 0-7.933-6.453-14.386-14.385-14.386zM143.515 9.023l-5.681 12.775-5.682-12.775h-4.765l8.065 18.126-1.978 4.45a2.33 2.33 0 01-3.07 1.182l-.627-.28-1.76 3.952.007.003 1.511.674c2.835 1.265 6.18-.021 7.449-2.864l11.295-25.243h-4.764M160.264 1.985c0 .518-.17.96-.514 1.327-.342.367-.787.55-1.336.55-.548 0-.992-.183-1.336-.55a1.877 1.877 0 01-.513-1.327c0-.462.171-.883.513-1.265.344-.38.788-.57 1.336-.57.55 0 .994.19 1.336.57.344.382.514.803.514 1.265"/></g></svg>